<svg width="107" height="122" viewBox="0 0 107 122" fill="none" xmlns="http://www.w3.org/2000/svg">
<path fill-rule="evenodd" clip-rule="evenodd" d="M0 63.0146C1.11637 61.1769 1.01332 59.0128 1.54574 57.0205C6.11425 40.0861 16.5909 28.2698 32.5636 21.2453C36.1187 19.6824 39.1587 20.73 40.464 23.7528C41.7349 26.7069 40.2751 29.5064 36.634 31.0693C18.8237 38.7293 8.65613 56.3507 11.1293 75.2946C13.4823 93.4141 28.0981 108.013 46.8187 110.967C67.5144 114.23 87.9182 101.263 93.8091 81.1169C99.6486 61.1082 89.5498 39.8457 70.1937 31.3613C69.2663 30.9663 68.2873 30.6228 67.4801 30.056C65.4019 28.6133 64.7321 25.6249 65.8828 23.3921C67.1537 20.919 69.9017 19.837 72.7012 20.9018C82.3192 24.6116 90.1509 30.6915 96.2136 39.0041C118.833 70.0047 100.782 114.556 62.9631 121.083C33.1475 126.218 6.61232 107.961 0.66982 78.2143C0.532421 77.5617 0.893093 76.6858 0 76.2736C0 71.8596 0 67.4285 0 63.0146Z" fill="#ED2D27"/>
<path fill-rule="evenodd" clip-rule="evenodd" d="M56.9347 0C59.1503 1.68314 59.7857 3.86435 59.7514 6.64667C59.614 18.068 59.6999 29.4893 59.6827 40.9105C59.6827 42.1128 59.5453 43.1433 61.1941 43.6242C70.3311 46.2691 74.539 53.0704 76.2564 61.8982C76.8919 65.1786 76.7545 68.4934 76.8919 71.8081C76.9778 73.6974 76.2908 74.0752 74.5561 74.058C62.9459 73.9893 51.3529 74.0924 39.7427 73.955C37.2351 73.9206 36.926 74.7107 37.2695 76.9434C39.3648 90.5803 49.9961 96.6602 63.9077 92.0917C67.0507 91.0612 69.8502 89.3437 72.9417 87.317C72.9417 89.9791 72.8902 92.2462 72.9589 94.4961C73.0104 95.6812 72.2032 96.1106 71.4131 96.5228C61.8811 101.572 51.9712 102.482 41.8723 98.5838C36.4794 96.5056 32.7181 92.3664 30.5713 87.0422C26.7756 77.6304 26.415 68.0125 30.2793 58.532C33.4051 50.8891 38.9698 45.5821 47.0935 43.4352C48.9656 42.9372 49.0171 41.9754 48.9999 40.5155C48.9656 29.0942 49.0343 17.6729 48.9312 6.25165C48.9312 3.5552 49.601 1.44269 51.954 0C53.62 0 55.2687 0 56.9347 0ZM52.5379 66.3465C56.9519 66.3465 61.3658 66.3637 65.7969 66.3293C66.5355 66.3293 67.3599 66.6557 67.566 65.2817C68.3732 59.7342 64.0623 52.6753 58.6007 50.8033C49.1373 47.5744 38.2828 54.8737 37.4928 64.9038C37.3725 66.3465 38.008 66.3465 39.0213 66.3465C43.504 66.3465 48.021 66.3465 52.5379 66.3465Z" fill="#ED2D27"/>
</svg>
