<svg width="299" height="74" viewBox="0 0 299 74" fill="none" xmlns="http://www.w3.org/2000/svg">
<g clip-path="url(#clip0_2_114)">
<path fill-rule="evenodd" clip-rule="evenodd" d="M0 36.69C0.65 35.62 0.59 34.36 0.9 33.2C3.56 23.34 9.66 16.46 18.96 12.37C21.03 11.46 22.8 12.07 23.56 13.83C24.3 15.55 23.45 17.18 21.33 18.09C10.96 22.55 5.04 32.81 6.48 43.84C7.85 54.39 16.36 62.89 27.26 64.61C39.31 66.51 51.19 58.96 54.62 47.23C58.02 35.58 52.14 23.2 40.87 18.26C40.33 18.03 39.76 17.83 39.29 17.5C38.08 16.66 37.69 14.92 38.36 13.62C39.1 12.18 40.7 11.55 42.33 12.17C47.93 14.33 52.49 17.87 56.02 22.71C69.19 40.76 58.68 66.7 36.66 70.5C19.3 73.49 3.85 62.86 0.39 45.54C0.31 45.16 0.52 44.65 0 44.41C0 41.84 0 39.26 0 36.69Z" fill="#ED2D27"/>
<path fill-rule="evenodd" clip-rule="evenodd" d="M170.89 73.38C169.88 72.94 168.85 72.54 167.86 72.07C164.39 70.43 162.61 67.66 162.33 63.85C162.25 62.82 162.62 62.63 163.5 62.8C164.18 62.93 164.88 63.03 165.57 63.1C166.97 63.25 168.11 63.41 168.47 65.27C168.82 67.08 170.55 67.91 172.25 68.4C174.68 69.09 177.13 69.05 179.55 68.38C182.52 67.55 184.29 65.48 184.91 62.54C185.37 60.36 185.38 58.11 185.29 55.55C183.16 57.7 180.96 59.26 178.16 59.65C172.63 60.42 167.96 58.95 164.64 54.22C160.14 47.8 160.04 37.46 164.39 30.94C169.08 23.9 178.93 22.87 184.9 28.8C185.09 28.98 185.21 29.23 185.45 29.58C186.04 28.7 185.86 27.92 185.79 27.25C185.65 25.92 186.2 25.66 187.41 25.68C191.15 25.74 191.15 25.69 191.15 29.4C191.15 38.36 191.15 47.31 191.14 56.27C191.14 58.52 190.93 60.76 190.57 62.99C189.76 68.01 186.74 71.07 182.09 72.76C181.57 72.95 181.17 73.23 180.53 73.38C177.33 73.38 174.11 73.38 170.89 73.38ZM185.75 42.49C185.77 40.93 185.68 39.39 185.35 37.86C184.34 33.14 180.89 29.94 176.61 29.8C172.56 29.66 169.1 32.32 167.86 36.7C166.71 40.77 166.81 44.88 168.09 48.9C169.31 52.72 172.57 55.03 176.41 55.05C180.26 55.06 183.41 52.78 184.8 48.98C185.56 46.87 185.78 44.7 185.75 42.49Z" fill="#ED2D27"/>
<path fill-rule="evenodd" clip-rule="evenodd" d="M33.15 0C34.44 0.98 34.81 2.25 34.79 3.87C34.71 10.52 34.76 17.17 34.75 23.82C34.75 24.52 34.67 25.12 35.63 25.4C40.95 26.94 43.4 30.9 44.4 36.04C44.77 37.95 44.69 39.88 44.77 41.81C44.82 42.91 44.42 43.13 43.41 43.12C36.65 43.08 29.9 43.14 23.14 43.06C21.68 43.04 21.5 43.5 21.7 44.8C22.92 52.74 29.11 56.28 37.21 53.62C39.04 53.02 40.67 52.02 42.47 50.84C42.47 52.39 42.44 53.71 42.48 55.02C42.51 55.71 42.04 55.96 41.58 56.2C36.03 59.14 30.26 59.67 24.38 57.4C21.24 56.19 19.05 53.78 17.8 50.68C15.59 45.2 15.38 39.6 17.63 34.08C19.45 29.63 22.69 26.54 27.42 25.29C28.51 25 28.54 24.44 28.53 23.59C28.51 16.94 28.55 10.29 28.49 3.64C28.49 2.07 28.88 0.84 30.25 0C31.22 0 32.18 0 33.15 0ZM30.59 38.63C33.16 38.63 35.73 38.64 38.31 38.62C38.74 38.62 39.22 38.81 39.34 38.01C39.81 34.78 37.3 30.67 34.12 29.58C28.61 27.7 22.29 31.95 21.83 37.79C21.76 38.63 22.13 38.63 22.72 38.63C25.33 38.63 27.96 38.63 30.59 38.63Z" fill="#ED2D27"/>
<path fill-rule="evenodd" clip-rule="evenodd" d="M136.08 49.61C134.26 56.32 129.39 60.24 122.59 60.54C120.5 60.63 118.41 60.59 116.37 60.04C111.01 58.6 107.51 55.16 105.96 49.88C104.57 45.15 104.62 40.34 106.1 35.63C108.28 28.65 114.29 24.59 121.65 24.98C128.94 25.37 134.31 30 135.78 37.19C136.16 39.03 136.23 40.91 136.35 42.78C136.43 44.01 135.99 44.31 134.8 44.3C127.4 44.25 120.01 44.33 112.61 44.23C110.97 44.21 110.88 44.83 111.1 46.09C111.64 49.18 112.73 51.97 115.32 53.95C120.26 57.73 127.01 55.95 129.61 50.1C130.07 49.06 130.56 48.74 131.62 48.94C133.11 49.22 134.59 49.39 136.08 49.61ZM120.84 39.53C123.62 39.53 126.41 39.54 129.19 39.52C129.67 39.52 130.33 39.73 130.19 38.78C129.88 36.64 129.38 34.58 127.94 32.87C125.48 29.96 121.49 28.93 117.72 30.22C114.25 31.41 111.57 34.98 111.34 38.55C111.28 39.56 111.78 39.54 112.48 39.54C115.27 39.52 118.06 39.53 120.84 39.53Z" fill="#ED2D27"/>
<path fill-rule="evenodd" clip-rule="evenodd" d="M250.96 44.27C247.26 44.27 243.56 44.33 239.86 44.24C238.51 44.2 238.38 44.7 238.56 45.83C239.25 50.16 241 53.75 245.41 55.32C250.33 57.07 254.96 55.04 257.06 50.19C257.59 48.97 258.21 48.71 259.34 48.98C259.86 49.1 260.4 49.17 260.93 49.23C263.86 49.57 263.87 49.57 262.68 52.22C260.43 57.21 256.48 59.88 251.12 60.47C248.67 60.74 246.2 60.67 243.78 60.02C237.62 58.38 233.58 53.55 232.75 46.67C232.28 42.75 232.43 38.85 233.74 35.08C236.05 28.46 242.09 24.55 249.23 24.99C256.43 25.43 261.69 29.93 263.22 36.98C263.64 38.92 263.77 40.9 263.85 42.88C263.9 44.05 263.46 44.31 262.37 44.3C258.58 44.23 254.77 44.27 250.96 44.27ZM248.2 39.53C251.04 39.53 253.88 39.53 256.72 39.53C257.24 39.53 257.85 39.66 257.7 38.75C257.34 36.57 256.85 34.45 255.31 32.73C252.78 29.91 248.88 28.95 245.18 30.24C241.72 31.45 239.1 34.95 238.83 38.61C238.76 39.51 239.17 39.55 239.85 39.54C242.63 39.52 245.41 39.53 248.2 39.53Z" fill="#ED2D27"/>
<path fill-rule="evenodd" clip-rule="evenodd" d="M215.53 44.27C211.78 44.27 208.02 44.31 204.27 44.25C203.17 44.23 202.95 44.58 203.03 45.63C203.56 52.29 208.47 56.54 214.77 55.71C218.21 55.26 220.35 53.12 221.6 50.07C222.05 48.98 222.6 48.72 223.63 48.95C224.2 49.08 224.79 49.14 225.38 49.23C228.47 49.7 228.53 49.06 227.07 52.37C224.88 57.31 220.87 59.89 215.58 60.47C213.18 60.73 210.75 60.69 208.39 60.06C202.69 58.54 199.17 54.8 197.72 49.17C196.6 44.84 196.68 40.46 197.9 36.14C199.96 28.85 206.12 24.53 213.73 24.98C221.16 25.42 226.6 30.37 227.86 37.78C228.13 39.37 228.16 40.98 228.27 42.58C228.36 43.88 228.02 44.34 226.62 44.3C222.93 44.2 219.23 44.27 215.53 44.27ZM212.6 39.53C215.39 39.53 218.17 39.48 220.96 39.55C222.01 39.58 222.21 39.24 222.11 38.26C221.59 33.24 217.86 29.71 212.96 29.68C208.1 29.64 204.03 33.29 203.4 38.14C203.24 39.33 203.64 39.58 204.74 39.55C207.34 39.48 209.97 39.53 212.6 39.53Z" fill="#ED2D27"/>
<path fill-rule="evenodd" clip-rule="evenodd" d="M298.11 59.86C295.87 59.86 293.89 59.8 291.91 59.89C291 59.93 290.72 59.37 290.34 58.79C286.85 53.39 283.37 47.99 279.77 42.42C278.53 43.62 277.37 44.78 276.17 45.91C275.7 46.35 275.8 46.88 275.8 47.4C275.79 51.1 275.77 54.8 275.81 58.5C275.82 59.46 275.71 60.01 274.54 59.88C273.07 59.71 271.09 60.5 270.24 59.55C269.51 58.73 270 56.8 270 55.36C269.99 41.68 270.01 28.01 269.97 14.33C269.97 13.1 270.24 12.59 271.53 12.74C272.48 12.85 273.47 12.84 274.42 12.74C275.61 12.61 275.8 13.12 275.8 14.19C275.76 22.49 275.78 30.8 275.78 39.21C276.44 39.05 276.71 38.57 277.05 38.22C280.85 34.36 284.64 30.49 288.41 26.6C289.01 25.98 289.6 25.65 290.49 25.68C292.41 25.75 294.34 25.7 296.29 25.7C296.39 26.44 295.78 26.64 295.44 26.98C292.05 30.34 288.69 33.73 285.19 36.98C284 38.09 284.05 38.8 284.93 40.09C289.04 46.11 293.03 52.21 297.06 58.27C297.38 58.72 297.66 59.17 298.11 59.86Z" fill="#ED2D27"/>
<path fill-rule="evenodd" clip-rule="evenodd" d="M76.66 30.27C81.34 25.16 86.57 23.72 92.29 25.75C96.33 27.19 98.49 30.12 98.78 34.27C99.35 42.46 98.91 50.67 99.04 58.87C99.05 59.66 98.77 59.91 98.01 59.86C96.47 59.75 94.53 60.47 93.5 59.58C92.6 58.81 93.26 56.86 93.24 55.43C93.15 49.27 93.47 43.09 93.08 36.94C92.73 31.33 88.6 28.69 83.2 30.42C79.26 31.69 77.34 34.6 77.27 39.85C77.18 45.91 77.2 51.97 77.27 58.03C77.29 59.42 77.03 60.11 75.49 59.87C74.19 59.67 72.43 60.45 71.66 59.56C71.02 58.81 71.45 57.11 71.45 55.83C71.44 46.29 71.47 36.74 71.42 27.2C71.41 26.05 71.62 25.65 72.88 25.67C76.57 25.74 76.57 25.68 76.62 29.4C76.62 29.61 76.63 29.81 76.66 30.27Z" fill="#ED2D27"/>
<path fill-rule="evenodd" clip-rule="evenodd" d="M147.73 30.58C148.23 29.79 148.48 29.38 148.75 28.98C151.5 24.75 155.37 23.8 159.84 26.22C160.6 26.63 160.83 27.02 160.46 27.84C159.97 28.91 159.56 30.02 159.21 31.14C158.95 31.98 158.6 31.99 157.82 31.69C153.2 29.93 150.11 31.58 148.88 36.37C148.37 38.36 148.25 40.39 148.25 42.43C148.24 47.74 148.22 53.05 148.27 58.35C148.28 59.48 148.09 60.05 146.8 59.88C145.39 59.69 143.49 60.49 142.67 59.54C141.97 58.73 142.43 56.89 142.43 55.5C142.42 46.07 142.45 36.63 142.4 27.19C142.39 26.01 142.66 25.65 143.9 25.67C147.58 25.73 147.58 25.67 147.66 29.41C147.66 29.66 147.69 29.91 147.73 30.58Z" fill="#ED2D27"/>
</g>
<defs>
<clipPath id="clip0_2_114">
<rect width="298.11" height="73.38" fill="white"/>
</clipPath>
</defs>
</svg>
